<svg width="201" height="120" viewBox="0 0 201 120" fill="none" xmlns="http://www.w3.org/2000/svg">
<path fill-rule="evenodd" clip-rule="evenodd" d="M164.212 89.8428C164.212 85.2605 162.04 82.353 156.066 82.353H154.239C148.512 82.353 145.649 85.4084 145.649 90.2865V92.0115C145.649 95.7564 146.735 98.7128 149.845 101.472L154.091 105.267C155.868 106.892 156.017 107.829 156.017 109.898V110.884C156.017 112.313 155.671 113.052 154.684 113.052C153.647 113.052 153.301 112.362 153.301 111.13V106.055H145.303V111.919C145.303 117.29 148.167 120 153.845 120H155.622C161.892 120 164.706 116.157 164.706 110.441V108.617C164.706 104.626 163.57 102.162 159.867 98.7621L155.671 95.0172C154.239 93.6867 153.894 92.7996 153.894 91.2723V90.3358C153.894 89.3012 154.19 88.7095 155.128 88.7095C156.115 88.7095 156.362 89.3012 156.362 90.2865V94.2287H164.212V89.8428ZM132.912 103.345V113.003H134.393C135.38 113.003 135.775 112.608 135.775 111.032V105.217C135.775 103.887 135.43 103.345 134.245 103.345H132.912ZM132.912 89.104V96.9883H134.047C134.986 96.9883 135.529 96.5445 135.529 95.1647V90.8285C135.529 89.6953 135.232 89.104 134.097 89.104H132.912ZM124.766 82.8457H137.108C141.305 82.8457 143.576 84.7674 143.576 89.7446V93.7849C143.576 97.2837 141.354 98.9593 140.169 99.3534C141.897 99.8953 144.267 101.275 144.267 105.611V111.032C144.267 116.699 142.045 119.507 137.602 119.507H124.766V82.8457ZM96.7738 111.722V82.8457H88.6274V119.507H103.438V111.722H96.7738ZM113.658 95.7561L114.793 106.893H112.523L113.658 95.7561ZM111.782 114.136H115.534L116.126 119.508H124.026L118.891 82.8458H108.869L104.179 119.508H111.239L111.782 114.136Z" fill="#19152E"/>
<path fill-rule="evenodd" clip-rule="evenodd" d="M121.056 78.4313H112.864V41.5686H121.056V78.4313ZM97.6233 41.5686H87.8433V78.4313H94.7938V58.3153L97.9214 78.4313H100.85L103.978 58.3153V78.4313H111.028V41.5686H101.794L99.6588 58.8107L97.6233 41.5686ZM130.786 41.5686L135.006 59.4052V41.5686H142.006V78.4313H134.807L129.942 59.2073V78.4313H122.842V41.5686H130.786ZM153.076 71.3462H151.934V48.4063H153.175C154.317 48.4063 154.615 49.0005 154.615 50.5365V69.1164C154.615 70.6525 154.267 71.3462 153.076 71.3462ZM155.558 41.5687H143.842V78.4314H155.608C160.423 78.4314 162.955 75.7558 162.955 69.9588V49.6941C162.955 43.7984 160.125 41.5687 155.558 41.5687ZM180.033 41.5686V49.1987H172.785V55.4914H178.593V63.3194H172.785V70.6525H180.331V78.4313H164.693V41.5686H180.033ZM190.905 71.3462H189.763V48.4063H191.004C192.147 48.4063 192.444 49.0005 192.444 50.5365V69.1164C192.444 70.6525 192.097 71.3462 190.905 71.3462ZM193.387 41.5687H181.671V78.4314H193.437C198.253 78.4314 200.784 75.7558 200.784 69.9588V49.6941C200.784 43.7984 197.955 41.5687 193.387 41.5687Z" fill="#19152E"/>
<path fill-rule="evenodd" clip-rule="evenodd" d="M112.189 36.8625H104.024V0H112.189V36.8625ZM87.8433 36.8628V0.00035683H96.008V29.0345H102.689V36.8628H87.8433ZM125.946 0.000287224L122.135 13.0313V0.000287224H113.97V36.8628H122.135V22.1474L125.797 36.8628H134.358L129.063 16.4497L134.061 0.000287224H125.946ZM135.001 36.8628V0.000287224H150.291V7.63026H143.067V13.9229H148.857V21.7511H143.067V29.0837H150.588V36.8628H135.001Z" fill="#19152E"/>
<path fill-rule="evenodd" clip-rule="evenodd" d="M50.7019 0L39.2159 11.486L27.7295 0H0V78.4314H39.2159L58.8234 58.8234H19.6079V19.6075L39.2159 39.2159L58.8234 19.6075V58.8234L78.4314 39.2159V0H50.7019Z" fill="url(#paint0_linear)"/>
<defs>
<linearGradient id="paint0_linear" x1="-29.0867" y1="29.4535" x2="29.1931" y2="88.2485" gradientUnits="userSpaceOnUse">
<stop stop-color="#005CFF"/>
<stop offset="1" stop-color="#39BCFF"/>
</linearGradient>
</defs>
</svg>
